<svg width="60" height="60" viewBox="0 0 60 60" fill="none" xmlns="http://www.w3.org/2000/svg">
<rect width="60" height="60" fill="white"/>
<path d="M21.7761 22V26.9915H38.2239V22H21.7761ZM23.4209 28.6017L23.1846 29.0042C22.9672 29.3907 22.1259 30.0267 20.9726 30.6466C19.8099 31.2665 18.3542 31.9025 16.9363 32.5547C15.509 33.1987 14.1128 33.8508 13.021 34.5432C11.9283 35.2356 11 35.9924 11 37.0551V55.411C11 57.0614 12.4264 58.2288 13.8869 58.9373C15.3483 59.6458 16.8607 60 17.9005 60H42.0995C43.1393 60 44.6517 59.6458 46.1169 58.9373C47.5726 58.2288 49 57.0614 49 55.411V37.0551C49 35.9924 48.0736 35.2356 46.9771 34.5432C45.8901 33.8508 44.491 33.1987 43.0637 32.5547C41.6458 31.9025 40.19 31.2665 39.0274 30.6466C37.8741 30.0267 37.0328 29.3907 36.8154 29.0042L36.5791 28.6017H23.4209ZM24.4229 30.0508H35.5771C36.1537 30.7513 37.0706 31.3068 38.1294 31.8703C39.3771 32.5386 40.8517 33.1907 42.2696 33.8267C43.6781 34.4708 45.0204 35.1068 45.9657 35.7025C46.9015 36.2983 47.2985 36.8297 47.2985 37.0551H12.7015C12.7015 36.8297 13.0966 36.2983 14.0362 35.7025C14.9768 35.1068 16.3219 34.4708 17.7303 33.8267C19.1483 33.1907 20.6229 32.5386 21.8706 31.8703C22.9294 31.3068 23.8463 30.7513 24.4229 30.0508ZM26.9751 42.2076H33.0249V46.072H37.5622V51.2246H33.0249V55.089H26.9751V51.2246H22.4378V46.072H26.9751V42.2076Z" fill="#263A29"/>
<path d="M20.4114 27.0225C19.4198 27.6601 18.2809 27.9954 17.1205 27.9915C16.1483 27.9833 15.1871 27.773 14.2917 27.3725C13.6015 28.403 13.2322 29.6354 13.235 30.8982V34.1232C13.2352 34.2431 13.2122 34.3618 13.1672 34.472C13.1223 34.5821 13.0564 34.6812 12.9737 34.7633C12.891 34.8453 12.7932 34.9085 12.6864 34.9489C12.5797 34.9893 12.4662 35.006 12.3531 34.9981C12.1405 34.9785 11.9427 34.8746 11.7995 34.7073C11.6562 34.54 11.5781 34.3216 11.5807 34.0959V32.7354L7.58773 28.512C6.99416 28.7462 6.3664 28.8687 5.73288 28.874C4.86075 28.8763 4.00494 28.6239 3.25975 28.1446C1.00685 26.6967 -0.205937 23.3645 0.028762 19.2275C0.0405791 19.0134 0.126288 18.8114 0.269617 18.6598C0.412946 18.5082 0.603915 18.4176 0.806268 18.4051C4.71758 18.1612 7.86793 19.4396 9.2327 21.8225C9.7689 22.7566 10.003 23.8498 9.89957 24.9371C9.89314 25.0213 9.86378 25.1018 9.81504 25.1687C9.76629 25.2357 9.70025 25.2863 9.6249 25.3144C9.54955 25.3425 9.46811 25.3469 9.39044 25.3271C9.31276 25.3073 9.24217 25.2642 9.1872 25.2028L7.20208 23.0047C7.0457 22.8476 6.83747 22.7613 6.62179 22.7642C6.4061 22.7671 6.20003 22.859 6.0475 23.0203C5.89498 23.1817 5.80807 23.3996 5.80531 23.6278C5.80255 23.8559 5.88415 24.0762 6.03272 24.2416L11.6035 30.2836C11.6097 30.1983 11.6169 30.113 11.6252 30.0288C11.8061 28.4068 12.4828 26.8915 13.5524 25.7135L18.783 19.8672C18.9382 19.7032 19.0254 19.4807 19.0255 19.2486C19.0256 19.0166 18.9386 18.794 18.7835 18.6298C18.6284 18.4657 18.4181 18.3734 18.1987 18.3733C17.9793 18.3732 17.7688 18.4653 17.6136 18.6293L12.5474 24.2962C12.4967 24.353 12.4326 24.3945 12.3616 24.4162C12.2906 24.4379 12.2155 24.4391 12.1439 24.4196C12.0724 24.4002 12.007 24.3609 11.9547 24.3057C11.9024 24.2506 11.865 24.1816 11.8464 24.106C11.3564 22.1944 11.5725 20.2915 12.5081 18.6577C14.3547 15.4338 18.6517 13.7081 24.0032 14.0406C24.2056 14.0531 24.3966 14.1437 24.5399 14.2953C24.6832 14.4469 24.7689 14.6489 24.7807 14.863C25.0909 20.5245 23.4594 25.0694 20.4114 27.0225Z" fill="#F24E1E"/>
</svg>
