<svg width="52" height="52" viewBox="0 0 52 52" fill="none" xmlns="http://www.w3.org/2000/svg">
<path d="M14.7463 0V6.83051H37.2537V0H14.7463ZM16.997 9.0339L16.6736 9.58475C16.3761 10.1136 15.2249 10.9839 13.6468 11.8322C12.0557 12.6805 10.0637 13.5508 8.12338 14.4432C6.17015 15.3246 4.2596 16.2169 2.76557 17.1644C1.27025 18.1119 0 19.1475 0 20.6017V45.7203C0 47.9788 1.95194 49.5763 3.95045 50.5458C5.95025 51.5153 8.0199 52 9.44279 52H42.5572C43.9801 52 46.0498 51.5153 48.0547 50.5458C50.0468 49.5763 52 47.9788 52 45.7203V20.6017C52 19.1475 50.7323 18.1119 49.2318 17.1644C47.7443 16.2169 45.8299 15.3246 43.8766 14.4432C41.9363 13.5508 39.9443 12.6805 38.3532 11.8322C36.7751 10.9839 35.6239 10.1136 35.3264 9.58475L35.003 9.0339H16.997ZM18.3682 11.0169H33.6318C34.4209 11.9754 35.6756 12.7356 37.1244 13.5068C38.8318 14.4212 40.8498 15.3136 42.7901 16.1839C44.7174 17.0653 46.5542 17.9356 47.8478 18.7508C49.1284 19.5661 49.6716 20.2932 49.6716 20.6017H2.32836C2.32836 20.2932 2.86906 19.5661 4.15483 18.7508C5.44189 17.9356 7.28259 17.0653 9.20995 16.1839C11.1502 15.3136 13.1682 14.4212 14.8756 13.5068C16.3244 12.7356 17.5791 11.9754 18.3682 11.0169ZM21.8607 27.6525H30.1393V32.9407H36.3483V39.9915H30.1393V45.2797H21.8607V39.9915H15.6517V32.9407H21.8607V27.6525Z" fill="#263A29"/>
</svg>
