<svg width="219" height="80" viewBox="0 0 219 80" fill="none" xmlns="http://www.w3.org/2000/svg">
<g clip-path="url(#clip0_24_85)">
<path d="M19.7188 33V30.2656L22.1406 29.7969V13.4688L19.7188 13V10.25H22.1406H26.7656L36.6719 26.0312L36.7656 26.0156V13.4688L33.8594 13V10.25H40.8438H43.2812V13L40.8438 13.4688V33H36.4375L26.3125 17.375L26.2188 17.3906V29.7969L29.1406 30.2656V33H19.7188ZM50.5469 33.3281C48.8698 33.3281 47.5365 32.8802 46.5469 31.9844C45.5573 31.0781 45.0625 29.849 45.0625 28.2969C45.0625 27.2344 45.349 26.3021 45.9219 25.5C46.5052 24.6979 47.3594 24.0677 48.4844 23.6094C49.6198 23.151 51.0156 22.9219 52.6719 22.9219H54.9062V21.6719C54.9062 20.8594 54.6667 20.2031 54.1875 19.7031C53.7188 19.1927 53.0104 18.9375 52.0625 18.9375C51.5729 18.9375 51.1354 19 50.75 19.125C50.3646 19.2396 50.0104 19.4062 49.6875 19.625L49.3281 21.8594H46.0469L45.9844 17.4688C46.8698 16.9688 47.8281 16.5625 48.8594 16.25C49.8906 15.9375 51.0417 15.7812 52.3125 15.7812C54.5208 15.7812 56.2656 16.2969 57.5469 17.3281C58.8281 18.349 59.4688 19.8125 59.4688 21.7188V28.6875C59.4688 28.9167 59.4688 29.1458 59.4688 29.375C59.4792 29.5938 59.5 29.8073 59.5312 30.0156L61.2969 30.2656V33H55.6406C55.526 32.7083 55.4115 32.3958 55.2969 32.0625C55.1823 31.7292 55.099 31.3958 55.0469 31.0625C54.5052 31.75 53.8646 32.3021 53.125 32.7188C52.3958 33.125 51.5365 33.3281 50.5469 33.3281ZM51.7656 29.9531C52.401 29.9531 53.0052 29.8125 53.5781 29.5312C54.151 29.2396 54.5938 28.8594 54.9062 28.3906V25.7188H52.6562C51.6562 25.7188 50.8958 25.9479 50.375 26.4062C49.8646 26.8646 49.6094 27.4167 49.6094 28.0625C49.6094 28.6667 49.7969 29.1354 50.1719 29.4688C50.5573 29.7917 51.0885 29.9531 51.7656 29.9531ZM69 33.3281C67.4271 33.3281 66.2135 32.8958 65.3594 32.0312C64.5156 31.1667 64.0938 29.7969 64.0938 27.9219V19.2969H61.7656V16.0938H64.0938V11.9531H68.6406V16.0938H71.75V19.2969H68.6406V27.9062C68.6406 28.5625 68.776 29.0312 69.0469 29.3125C69.3281 29.5938 69.7083 29.7344 70.1875 29.7344C70.4479 29.7344 70.7188 29.7188 71 29.6875C71.2917 29.6458 71.5417 29.6042 71.75 29.5625L72.1406 32.8594C71.6719 32.9948 71.1615 33.1042 70.6094 33.1875C70.0677 33.2812 69.5312 33.3281 69 33.3281ZM81.0312 33.3281C79.25 33.3281 77.849 32.7656 76.8281 31.6406C75.8177 30.5052 75.3125 28.7448 75.3125 26.3594V19.3125L73.4531 18.8438V16.0938H75.3125H79.875V26.3906C79.875 27.599 80.0833 28.4688 80.5 29C80.9271 29.5208 81.5677 29.7812 82.4219 29.7812C83.099 29.7812 83.6979 29.651 84.2188 29.3906C84.7396 29.1198 85.1667 28.7396 85.5 28.25V19.3125L83.4844 18.8438V16.0938H85.5H90.0625V29.7969L92.0938 30.2656V33H86.0625L85.75 30.8594C85.2188 31.651 84.5521 32.2604 83.75 32.6875C82.9479 33.1146 82.0417 33.3281 81.0312 33.3281ZM94.1406 33V30.2656L96.3281 29.7969V19.3125L93.9062 18.8438V16.0938H100.578L100.75 18.1875L100.781 18.5625C101.198 17.6458 101.714 16.9531 102.328 16.4844C102.943 16.0156 103.677 15.7812 104.531 15.7812C104.802 15.7812 105.099 15.8073 105.422 15.8594C105.745 15.901 106.031 15.9583 106.281 16.0312L105.797 20.2344L103.531 20.1094C102.885 20.0781 102.359 20.1875 101.953 20.4375C101.557 20.6875 101.203 21.0469 100.891 21.5156V29.7969L103.078 30.2656V33H94.1406ZM112.984 33.3281C111.307 33.3281 109.974 32.8802 108.984 31.9844C107.995 31.0781 107.5 29.849 107.5 28.2969C107.5 27.2344 107.786 26.3021 108.359 25.5C108.943 24.6979 109.797 24.0677 110.922 23.6094C112.057 23.151 113.453 22.9219 115.109 22.9219H117.344V21.6719C117.344 20.8594 117.104 20.2031 116.625 19.7031C116.156 19.1927 115.448 18.9375 114.5 18.9375C114.01 18.9375 113.573 19 113.188 19.125C112.802 19.2396 112.448 19.4062 112.125 19.625L111.766 21.8594H108.484L108.422 17.4688C109.307 16.9688 110.266 16.5625 111.297 16.25C112.328 15.9375 113.479 15.7812 114.75 15.7812C116.958 15.7812 118.703 16.2969 119.984 17.3281C121.266 18.349 121.906 19.8125 121.906 21.7188V28.6875C121.906 28.9167 121.906 29.1458 121.906 29.375C121.917 29.5938 121.938 29.8073 121.969 30.0156L123.734 30.2656V33H118.078C117.964 32.7083 117.849 32.3958 117.734 32.0625C117.62 31.7292 117.536 31.3958 117.484 31.0625C116.943 31.75 116.302 32.3021 115.562 32.7188C114.833 33.125 113.974 33.3281 112.984 33.3281ZM114.203 29.9531C114.839 29.9531 115.443 29.8125 116.016 29.5312C116.589 29.2396 117.031 28.8594 117.344 28.3906V25.7188H115.094C114.094 25.7188 113.333 25.9479 112.812 26.4062C112.302 26.8646 112.047 27.4167 112.047 28.0625C112.047 28.6667 112.234 29.1354 112.609 29.4688C112.995 29.7917 113.526 29.9531 114.203 29.9531ZM125.109 33V30.2656L127.312 29.7969V11.8438L124.875 11.375V8.625H131.875V29.7969L134.078 30.2656V33H125.109Z" fill="#263A29"/>
<path d="M135.406 33V30.2656L137.609 29.7969V19.3125L135.172 18.8438V16.0938H141.844L142.031 18.3281C142.573 17.5156 143.25 16.8906 144.062 16.4531C144.885 16.0052 145.833 15.7812 146.906 15.7812C147.99 15.7812 148.917 16.0208 149.688 16.5C150.469 16.9792 151.052 17.7031 151.438 18.6719C151.958 17.7656 152.635 17.0573 153.469 16.5469C154.302 16.0365 155.281 15.7812 156.406 15.7812C158.073 15.7812 159.385 16.349 160.344 17.4844C161.312 18.6198 161.797 20.349 161.797 22.6719V29.7969L164 30.2656V33H155.266V30.2656L157.234 29.7969V22.6562C157.234 21.4062 157.026 20.5417 156.609 20.0625C156.203 19.5729 155.609 19.3281 154.828 19.3281C154.12 19.3281 153.521 19.5312 153.031 19.9375C152.542 20.3333 152.188 20.8594 151.969 21.5156V29.7969L153.812 30.2656V33H145.578V30.2656L147.422 29.7969V22.6562C147.422 21.4375 147.214 20.5781 146.797 20.0781C146.391 19.5781 145.786 19.3281 144.984 19.3281C144.339 19.3281 143.781 19.4583 143.312 19.7188C142.844 19.9792 142.458 20.3542 142.156 20.8438V29.7969L144.125 30.2656V33H135.406ZM173.453 33.3281C171.839 33.3281 170.427 32.974 169.219 32.2656C168.01 31.5469 167.073 30.5625 166.406 29.3125C165.75 28.0625 165.422 26.6354 165.422 25.0312V24.4062C165.422 22.7292 165.734 21.2448 166.359 19.9531C166.984 18.651 167.865 17.6302 169 16.8906C170.146 16.1406 171.495 15.7708 173.047 15.7812C174.578 15.7812 175.865 16.0833 176.906 16.6875C177.948 17.2917 178.74 18.1615 179.281 19.2969C179.823 20.4323 180.094 21.8073 180.094 23.4219V25.9062H170.156L170.125 26C170.188 26.7396 170.37 27.401 170.672 27.9844C170.984 28.5573 171.422 29.0104 171.984 29.3438C172.547 29.6667 173.229 29.8281 174.031 29.8281C174.865 29.8281 175.641 29.724 176.359 29.5156C177.089 29.2969 177.797 28.9792 178.484 28.5625L179.719 31.375C179.021 31.9375 178.141 32.4062 177.078 32.7812C176.026 33.1458 174.818 33.3281 173.453 33.3281ZM170.188 22.8906H175.828V22.4844C175.828 21.7969 175.734 21.2083 175.547 20.7188C175.37 20.2188 175.078 19.8333 174.672 19.5625C174.276 19.2917 173.76 19.1562 173.125 19.1562C172.521 19.1562 172.01 19.3177 171.594 19.6406C171.177 19.9531 170.849 20.3854 170.609 20.9375C170.38 21.4896 170.224 22.1146 170.141 22.8125L170.188 22.8906ZM188.703 33.3281C187.359 33.3281 186.203 32.9844 185.234 32.2969C184.276 31.599 183.542 30.6302 183.031 29.3906C182.521 28.1406 182.266 26.6823 182.266 25.0156V24.6875C182.266 22.9062 182.521 21.349 183.031 20.0156C183.552 18.6823 184.292 17.6458 185.25 16.9062C186.208 16.1562 187.354 15.7812 188.688 15.7812C189.615 15.7812 190.427 15.9688 191.125 16.3438C191.823 16.7083 192.427 17.2292 192.938 17.9062V11.8438L190.5 11.375V8.625H192.938H197.5V29.7969L199.688 30.2656V33H193.547L193.203 30.9375C192.672 31.7188 192.036 32.3125 191.297 32.7188C190.568 33.125 189.703 33.3281 188.703 33.3281ZM190.062 29.7812C190.698 29.7812 191.255 29.6458 191.734 29.375C192.214 29.1042 192.615 28.7135 192.938 28.2031V21.0312C192.625 20.4896 192.229 20.0729 191.75 19.7812C191.271 19.4792 190.719 19.3281 190.094 19.3281C189.333 19.3281 188.708 19.5573 188.219 20.0156C187.74 20.4635 187.385 21.0885 187.156 21.8906C186.938 22.6927 186.828 23.625 186.828 24.6875V25.0156C186.828 26.4948 187.078 27.6615 187.578 28.5156C188.078 29.3594 188.906 29.7812 190.062 29.7812Z" fill="black"/>
<path d="M77.6094 59V56.2656L79.2344 56.0312L86.4688 36.25H91.1406L98.3281 56.0312L99.9531 56.2656V59H92.2031V56.2656L93.7812 55.9844L92.7812 52.8594H84.7812L83.7812 55.9844L85.3594 56.2656V59H77.6094ZM85.8594 49.5H91.7031L89.0469 41.7031L88.8281 41.0156H88.7344L88.5 41.75L85.8594 49.5ZM101.469 59V56.2656L103.891 55.7969V39.4688L101.469 39V36.25H103.891H112.297C114.036 36.25 115.536 36.5573 116.797 37.1719C118.057 37.776 119.026 38.625 119.703 39.7188C120.38 40.8021 120.719 42.0677 120.719 43.5156C120.719 44.9635 120.38 46.2344 119.703 47.3281C119.026 48.4115 118.057 49.2552 116.797 49.8594C115.536 50.4531 114.036 50.75 112.297 50.75H108.453V55.7969L110.891 56.2656V59H101.469ZM108.453 47.2344H112.297C113.568 47.2344 114.526 46.8906 115.172 46.2031C115.828 45.5052 116.156 44.6198 116.156 43.5469C116.156 42.4531 115.828 41.5521 115.172 40.8438C114.526 40.125 113.568 39.7656 112.297 39.7656H108.453V47.2344ZM122.188 59V56.2656L124.609 55.7969V39.4688L122.188 39V36.25H124.609H133.016C134.755 36.25 136.255 36.5573 137.516 37.1719C138.776 37.776 139.745 38.625 140.422 39.7188C141.099 40.8021 141.438 42.0677 141.438 43.5156C141.438 44.9635 141.099 46.2344 140.422 47.3281C139.745 48.4115 138.776 49.2552 137.516 49.8594C136.255 50.4531 134.755 50.75 133.016 50.75H129.172V55.7969L131.609 56.2656V59H122.188ZM129.172 47.2344H133.016C134.286 47.2344 135.245 46.8906 135.891 46.2031C136.547 45.5052 136.875 44.6198 136.875 43.5469C136.875 42.4531 136.547 41.5521 135.891 40.8438C135.245 40.125 134.286 39.7656 133.016 39.7656H129.172V47.2344Z" fill="#F24E1E"/>
</g>
<defs>
<clipPath id="clip0_24_85">
<rect width="219" height="80" fill="white"/>
</clipPath>
</defs>
</svg>
